# This file uses centimeters as units for non-parametric coordinates.

mtllib Freezer.mtl
g default
v 0.429352 0.017632 0.680367
v -0.425564 1.923019 0.680367
v -0.453266 2.021576 0.680367
v -0.394043 2.047394 0.680367
v 0.429352 0.079096 0.680367
v -0.425564 0.419735 0.680367
v 0.150244 2.046234 0.680367
v 0.177711 1.985916 0.680367
v 0.459965 0.419735 0.680367
v 0.484791 0.079096 0.680367
v -0.425564 1.923019 0.726471
v -0.425564 0.419735 0.726471
v -0.484791 1.923019 0.726471
v -0.484791 0.419735 0.726471
v -0.394043 2.047394 0.726471
v -0.453266 2.021576 0.726471
v 0.429352 0.017632 0.726471
v -0.484791 0.017632 0.726471
v 0.429352 0.079096 0.726471
v -0.484791 0.079096 0.726471
v 0.177711 1.985916 0.726471
v 0.150244 2.046234 0.726471
v 0.484791 0.079096 0.726471
v 0.459965 0.419735 0.726471
v 0.429352 0.017632 -0.688850
v 0.429352 0.017632 0.683426
v -0.425564 1.923019 -0.688850
v -0.425564 1.923019 0.683426
v -0.394043 2.047394 -0.688850
v -0.453266 2.021576 -0.688850
v -0.453266 2.021576 0.683426
v -0.394043 2.047394 0.683426
v -0.425564 1.608826 -0.688850
v -0.425564 1.608826 0.683426
v -0.425564 1.698685 -0.688850
v -0.425564 1.698685 0.683426
v -0.425564 1.275780 -0.688850
v -0.425564 1.275780 0.683426
v -0.425564 1.365646 -0.688850
v -0.425564 1.365646 0.683426
v -0.425564 0.942741 -0.688850
v -0.425564 0.942741 0.683426
v -0.425564 1.032608 -0.688850
v -0.425564 1.032608 0.683426
v -0.425564 0.609695 -0.688850
v -0.425564 0.609695 0.683426
v -0.425564 0.699570 -0.688850
v -0.425564 0.699570 0.683426
v 0.429352 0.079096 -0.688850
v 0.429352 0.079096 0.683426
v -0.425564 0.419735 -0.688850
v -0.425564 0.419735 0.683426
v 0.150244 2.046234 0.683426
v 0.150244 2.046234 -0.688850
v 0.177711 1.985916 0.683426
v 0.177711 1.985916 -0.688850
v 0.162643 1.697784 0.683426
v 0.162643 1.697784 -0.688850
v 0.189852 1.643402 0.683426
v 0.189852 1.643402 -0.688850
v 0.177090 1.365067 0.683426
v 0.177090 1.365067 -0.688850
v 0.204300 1.310669 0.683426
v 0.204300 1.310669 -0.688850
v 0.191540 1.032333 0.683426
v 0.191540 1.032333 -0.688850
v 0.218748 0.977959 0.683426
v 0.218748 0.977959 -0.688850
v 0.205988 0.699608 0.683426
v 0.205988 0.699608 -0.688850
v 0.233198 0.645222 0.683426
v 0.233198 0.645222 -0.688850
v 0.459965 0.419735 0.683426
v 0.459965 0.419735 -0.688850
v 0.484791 0.079096 0.683426
v 0.484791 0.079096 -0.688850
v 0.429352 0.017632 -0.680367
v -0.425564 1.923019 -0.680367
v -0.453266 2.021576 -0.680367
v -0.394043 2.047394 -0.680367
v 0.429352 0.079096 -0.680367
v -0.425564 0.419735 -0.680367
v 0.150244 2.046234 -0.680367
v 0.177711 1.985916 -0.680367
v 0.459965 0.419735 -0.680367
v 0.484791 0.079096 -0.680367
v -0.425564 1.923019 -0.726471
v -0.425564 0.419735 -0.726471
v -0.484791 1.923019 -0.726471
v -0.484791 0.419735 -0.726471
v -0.394043 2.047394 -0.726471
v -0.453266 2.021576 -0.726471
v 0.429352 0.017632 -0.726471
v -0.484791 0.017632 -0.726471
v 0.429352 0.079096 -0.726471
v -0.484791 0.079096 -0.726471
v 0.177711 1.985916 -0.726471
v 0.150244 2.046234 -0.726471
v 0.484791 0.079096 -0.726471
v 0.459965 0.419735 -0.726471
vt -0.414322 0.270675
vt -0.413471 0.302791
vt -0.450802 0.297487
vt -0.446142 0.264680
vt -0.413631 0.303922
vt -0.450953 0.298563
vt -0.445820 0.262418
vt -0.018512 0.323125
vt -0.018673 0.324256
vt -0.445981 0.263549
vt 0.011449 0.363158
vt -0.004359 0.362066
vt 0.016271 0.329220
vt 0.000740 0.328167
vt 0.000000 0.000000
vt 1.000000 0.000000
vt 1.256957 1.069873
vt -0.195120 1.135609
vt 0.000000 0.000000
vt -0.195120 1.135609
vt 1.256957 1.069873
vt 1.000000 0.000000
vt -0.413631 0.303922
vt -0.450953 0.298563
vt -0.018512 0.323125
vt -0.018673 0.324256
vt 0.011449 0.363158
vt -0.004359 0.362066
vt 0.016271 0.329220
vt 0.000740 0.328167
vt -0.195120 1.135609
vt 0.000000 0.000000
vt 0.969374 0.531907
vt 0.970265 0.630074
vt 0.025625 0.628165
vt 0.025880 0.531414
vt 0.999039 0.658367
vt 0.000936 0.655920
vt 0.000000 0.635752
vt 1.000000 0.637891
vt 0.968308 0.414422
vt 0.969196 0.512302
vt 0.025930 0.512091
vt 0.026184 0.415618
vt 0.997865 0.533849
vt 0.001296 0.533298
vt 0.000362 0.512930
vt 0.998823 0.513167
vt 0.967245 0.297278
vt 0.968131 0.394874
vt 0.026234 0.396351
vt 0.026487 0.300154
vt 0.996695 0.409715
vt 0.001654 0.411049
vt 0.000722 0.390482
vt 0.997649 0.388827
vt 0.966186 0.180475
vt 0.967069 0.277787
vt 0.026538 0.280942
vt 0.026790 0.185021
vt 0.995528 0.285962
vt 0.002012 0.289169
vt 0.001082 0.268404
vt 0.996478 0.264871
vt 0.965129 0.064010
vt 0.966009 0.161041
vt 0.026840 0.165864
vt 0.027091 0.070216
vt 0.994365 0.162589
vt 0.002368 0.167658
vt 0.001440 0.146697
vt 0.995312 0.141296
vt 0.991619 0.020398
vt 0.003991 0.027587
vt 0.004050 0.007494
vt 0.991427 0.000000
vt 0.993206 0.039594
vt 0.002723 0.046513
vt 0.001797 0.025357
vt 0.994148 0.018100
vt 0.970443 0.649736
vt 0.025574 0.647543
vt 0.000000 0.000000
vt 1.000000 0.000000
vt 0.999962 0.836921
vt 0.000050 0.836929
vt -0.414322 0.270675
vt -0.446142 0.264680
vt -0.450802 0.297487
vt -0.413471 0.302791
vt -0.450953 0.298563
vt -0.413631 0.303922
vt -0.445820 0.262418
vt -0.445981 0.263549
vt -0.018673 0.324256
vt -0.018512 0.323125
vt -0.004359 0.362066
vt 0.011449 0.363158
vt 0.000740 0.328167
vt 0.016271 0.329220
vt 0.000000 0.000000
vt -0.195120 1.135609
vt 1.256957 1.069873
vt 1.000000 0.000000
vt 0.000000 0.000000
vt 1.000000 0.000000
vt 1.256957 1.069873
vt -0.195120 1.135609
vt -0.413631 0.303922
vt -0.450953 0.298563
vt -0.018512 0.323125
vt -0.018673 0.324256
vt 0.011449 0.363158
vt -0.004359 0.362066
vt 0.016271 0.329220
vt 0.000740 0.328167
vt -0.195120 1.135609
vt 0.000000 0.000000
vn 0.000000 0.000000 1.000000
vn 0.000000 0.000000 1.000000
vn 0.000000 0.000000 1.000000
vn 0.000000 0.000000 1.000000
vn 0.000000 0.000000 1.000000
vn 0.000000 0.000000 1.000000
vn 0.000000 0.000000 1.000000
vn 0.000000 0.000000 1.000000
vn 0.000000 0.000000 1.000000
vn 0.000000 0.000000 1.000000
vn 0.000000 0.000000 1.000000
vn 0.000000 0.000000 1.000000
vn 0.000000 0.000000 1.000000
vn 0.000000 0.000000 1.000000
vn 0.000000 0.000000 1.000000
vn 0.000000 0.000000 1.000000
vn 0.000000 0.000000 1.000000
vn 0.000000 0.000000 1.000000
vn 0.000000 0.000000 1.000000
vn 0.000000 0.000000 1.000000
vn 0.000000 0.000000 1.000000
vn 0.000000 0.000000 1.000000
vn 0.000000 0.000000 1.000000
vn 0.000000 0.000000 1.000000
vn 0.000000 0.000000 1.000000
vn 0.000000 0.000000 1.000000
vn 0.000000 0.000000 1.000000
vn 0.000000 0.000000 1.000000
vn 0.000000 0.000000 -1.000000
vn 0.000000 0.000000 -1.000000
vn 0.000000 0.000000 -1.000000
vn 0.000000 0.000000 -1.000000
vn -0.040834 0.999166 0.000000
vn -0.399818 0.916595 0.000003
vn -0.399818 0.916595 0.000003
vn -0.040834 0.999166 0.000000
vn 1.000000 0.000000 0.000000
vn 1.000000 0.000000 0.000000
vn 1.000000 0.000000 0.000000
vn 1.000000 0.000000 0.000000
vn 0.982349 0.187060 0.000000
vn 0.910112 0.414362 0.000000
vn 0.910112 0.414362 0.000000
vn 0.982349 0.187060 0.000000
vn 0.002148 0.999998 0.000000
vn -0.040834 0.999166 0.000000
vn -0.040834 0.999166 0.000000
vn 0.002148 0.999998 0.000000
vn 0.000000 -1.000000 0.000000
vn 0.000000 -1.000000 0.000000
vn 0.000000 -1.000000 0.000000
vn 0.000000 -1.000000 0.000000
vn 0.997355 0.072682 0.000000
vn 0.987280 0.158994 0.000000
vn 0.987280 0.158994 0.000000
vn 0.997355 0.072682 0.000000
vn 0.987280 0.158994 0.000000
vn 0.982349 0.187060 0.000000
vn 0.982349 0.187060 0.000000
vn 0.987280 0.158994 0.000000
vn 1.000000 0.000000 0.000000
vn 1.000000 0.000000 0.000000
vn 1.000000 0.000000 0.000000
vn 1.000000 0.000000 0.000000
vn 0.910111 0.414364 0.000000
vn 0.910111 0.414364 0.000000
vn 0.910111 0.414364 0.000000
vn 0.910111 0.414364 0.000000
vn 1.000000 0.000000 0.000000
vn 1.000000 0.000000 0.000000
vn 1.000000 0.000000 0.000000
vn 1.000000 0.000000 0.000000
vn 0.894297 0.447475 0.000000
vn 0.894297 0.447475 0.000000
vn 0.894297 0.447475 0.000000
vn 0.894297 0.447475 0.000000
vn 1.000000 0.000000 0.000000
vn 1.000000 0.000000 0.000000
vn 1.000000 0.000000 0.000000
vn 1.000000 0.000000 0.000000
vn 0.894297 0.447474 0.000000
vn 0.894297 0.447474 0.000000
vn 0.894297 0.447474 0.000000
vn 0.894297 0.447474 0.000000
vn 1.000000 0.000000 0.000000
vn 1.000000 0.000000 0.000000
vn 1.000000 0.000000 0.000000
vn 1.000000 0.000000 0.000000
vn 0.894297 0.447474 0.000000
vn 0.894297 0.447474 0.000000
vn 0.894297 0.447474 0.000000
vn 0.894297 0.447474 0.000000
vn 1.000000 0.000000 0.000000
vn 1.000000 0.000000 0.000000
vn 1.000000 0.000000 0.000000
vn 1.000000 0.000000 0.000000
vn 0.894297 0.447474 0.000000
vn 0.894297 0.447474 0.000000
vn 0.894297 0.447474 0.000000
vn 0.894297 0.447474 0.000000
vn 1.000000 0.000000 0.000000
vn 1.000000 0.000000 0.000000
vn 1.000000 0.000000 0.000000
vn 1.000000 0.000000 0.000000
vn 0.997355 0.072682 0.000000
vn 0.997355 0.072682 0.000000
vn 0.997355 0.072682 0.000000
vn 0.997355 0.072682 0.000000
vn -0.040833 0.999166 0.000000
vn -0.040833 0.999166 0.000000
vn 0.002149 0.999998 0.000000
vn 0.002149 0.999998 0.000000
vn 0.103693 -0.994609 0.000000
vn 0.103693 -0.994609 0.000000
vn 0.103693 -0.994609 0.000000
vn 0.103693 -0.994609 0.000000
vn 0.001531 0.999999 0.000000
vn 0.001531 0.999999 0.000000
vn 0.001531 0.999999 0.000000
vn 0.001531 0.999999 0.000000
vn 0.056115 -0.998424 0.000000
vn 0.056115 -0.998424 0.000000
vn 0.056115 -0.998424 0.000000
vn 0.056115 -0.998424 0.000000
vn 0.000974 1.000000 0.000000
vn 0.000974 1.000000 0.000000
vn 0.000974 1.000000 0.000000
vn 0.000974 1.000000 0.000000
vn 0.055327 -0.998468 0.000000
vn 0.055327 -0.998468 0.000000
vn 0.055327 -0.998468 0.000000
vn 0.055327 -0.998468 0.000000
vn 0.000443 1.000000 0.000000
vn 0.000443 1.000000 0.000000
vn 0.000443 1.000000 0.000000
vn 0.000443 1.000000 0.000000
vn 0.054575 -0.998510 0.000000
vn 0.054575 -0.998510 0.000000
vn 0.054575 -0.998510 0.000000
vn 0.054575 -0.998510 0.000000
vn -0.000064 1.000000 0.000000
vn -0.000064 1.000000 0.000000
vn -0.000064 1.000000 0.000000
vn -0.000064 1.000000 0.000000
vn 0.053855 -0.998549 0.000000
vn 0.053855 -0.998549 0.000000
vn 0.053855 -0.998549 0.000000
vn 0.053855 -0.998549 0.000000
vn 0.000000 1.000000 0.000000
vn 0.000000 1.000000 0.000000
vn 0.000000 1.000000 0.000000
vn 0.000000 1.000000 0.000000
vn -0.040833 0.999166 0.000000
vn -0.040833 0.999166 0.000000
vn -0.399818 0.916595 0.000000
vn -0.399818 0.916595 0.000000
vn 0.000000 0.000000 -1.000000
vn 0.000000 0.000000 -1.000000
vn 0.000000 0.000000 -1.000000
vn 0.000000 0.000000 -1.000000
vn 0.000000 0.000000 -1.000000
vn 0.000000 -0.000001 -1.000000
vn 0.000000 -0.000001 -1.000000
vn 0.000000 0.000000 -1.000000
vn 0.000000 0.000000 -1.000000
vn 0.000000 0.000000 -1.000000
vn 0.000000 0.000000 -1.000000
vn 0.000000 0.000000 -1.000000
vn 0.000000 0.000000 -1.000000
vn 0.000000 0.000000 -1.000000
vn 0.000000 0.000000 -1.000000
vn 0.000000 0.000000 -1.000000
vn 0.000000 0.000000 -1.000000
vn 0.000000 0.000000 -1.000000
vn 0.000000 0.000000 -1.000000
vn 0.000000 0.000000 -1.000000
vn 0.000000 0.000000 -1.000000
vn 0.000000 0.000000 -1.000000
vn 0.000000 0.000000 -1.000000
vn 0.000000 0.000000 -1.000000
vn 0.000000 0.000000 -1.000000
vn 0.000000 0.000000 -1.000000
vn 0.000000 0.000000 -1.000000
vn 0.000000 0.000000 -1.000000
vn 0.000000 0.000000 1.000000
vn 0.000000 0.000000 1.000000
vn 0.000000 0.000000 1.000000
vn 0.000000 0.000000 1.000000
vn -0.040834 0.999166 -0.000004
vn -0.040834 0.999166 -0.000004
vn -0.399816 0.916596 0.000000
vn -0.399816 0.916596 0.000000
vn 1.000000 0.000000 0.000000
vn 1.000000 0.000000 0.000000
vn 1.000000 0.000000 0.000000
vn 1.000000 0.000000 0.000000
vn 0.982349 0.187060 0.000000
vn 0.982349 0.187060 0.000000
vn 0.910112 0.414363 0.000000
vn 0.910112 0.414363 0.000000
vn 0.002148 0.999998 -0.000004
vn 0.002148 0.999998 -0.000004
vn -0.040834 0.999166 -0.000004
vn -0.040834 0.999166 -0.000004
vn 0.000000 -1.000000 0.000000
vn 0.000000 -1.000000 0.000000
vn 0.000000 -1.000000 0.000000
vn 0.000000 -1.000000 0.000000
vn 0.997355 0.072682 0.000000
vn 0.997355 0.072682 0.000000
vn 0.987280 0.158994 0.000000
vn 0.987280 0.158994 0.000000
vn 0.987280 0.158994 0.000000
vn 0.987280 0.158994 0.000000
vn 0.982349 0.187060 0.000000
vn 0.982349 0.187060 0.000000
s off
g pCube46
usemtl lambert3SG
f 12/1/1 11/2/2 13/3/3 14/4/4
f 13/3/5 11/2/6 15/5/7 16/6/8
f 18/7/9 17/8/10 19/9/11 20/10/12
f 20/10/13 19/9/14 12/1/15 14/4/16
f 15/5/17 11/2/18 21/11/19 22/12/20
f 12/1/21 19/9/22 23/13/23 24/14/24
f 21/15/25 11/16/26 12/17/27 24/18/28
f 8/19/29 9/20/30 6/21/31 2/22/32
f 4/23/33 3/24/34 16/6/35 15/5/36
f 1/25/37 5/26/38 19/9/39 17/8/40
f 8/27/41 7/28/42 22/12/43 21/11/44
f 7/28/45 4/23/46 15/5/47 22/12/48
f 5/26/49 10/29/50 23/13/51 19/9/52
f 10/29/53 9/30/54 24/14/55 23/13/56
f 9/31/57 8/32/58 21/15/59 24/18/60
f 35/33/61 27/34/62 28/35/63 36/36/64
f 54/37/65 53/38/66 55/39/67 56/40/68
f 39/41/69 33/42/70 34/43/71 40/44/72
f 58/45/73 57/46/74 59/47/75 60/48/76
f 43/49/77 37/50/78 38/51/79 44/52/80
f 62/53/81 61/54/82 63/55/83 64/56/84
f 47/57/85 41/58/86 42/59/87 48/60/88
f 66/61/89 65/62/90 67/63/91 68/64/92
f 51/65/93 45/66/94 46/67/95 52/68/96
f 70/69/97 69/70/98 71/71/99 72/72/100
f 49/73/101 50/74/102 26/75/103 25/76/104
f 74/77/105 73/78/106 75/79/107 76/80/108
f 29/81/109 32/82/110 53/38/111 54/37/112
f 28/35/113 27/34/114 56/40/115 55/39/116
f 35/33/117 36/36/118 57/46/119 58/45/120
f 34/43/121 33/42/122 60/48/123 59/47/124
f 39/41/125 40/44/126 61/54/127 62/53/128
f 38/51/129 37/50/130 64/56/131 63/55/132
f 43/49/133 44/52/134 65/62/135 66/61/136
f 42/59/137 41/58/138 68/64/139 67/63/140
f 47/57/141 48/60/142 69/70/143 70/69/144
f 46/67/145 45/66/146 72/72/147 71/71/148
f 51/65/149 52/68/150 73/78/151 74/77/152
f 32/83/153 29/84/154 30/85/155 31/86/156
f 88/87/157 90/88/158 89/89/159 87/90/160
f 89/89/161 92/91/162 91/92/163 87/90/164
f 94/93/165 96/94/166 95/95/167 93/96/168
f 96/94/169 90/88/170 88/87/171 95/95/172
f 91/92/173 98/97/174 97/98/175 87/90/176
f 88/87/177 100/99/178 99/100/179 95/95/180
f 97/101/181 100/102/182 88/103/183 87/104/184
f 84/105/185 78/106/186 82/107/187 85/108/188
f 80/109/189 91/92/190 92/91/191 79/110/192
f 77/111/193 93/96/194 95/95/195 81/112/196
f 84/113/197 97/98/198 98/97/199 83/114/200
f 83/114/201 98/97/202 91/92/203 80/109/204
f 81/112/205 95/95/206 99/100/207 86/115/208
f 86/115/209 99/100/210 100/99/211 85/116/212
f 85/117/213 100/102/214 97/101/215 84/118/216
